<svg width="1080" height="1080" viewBox="0 0 1080 1080" fill="none" xmlns="http://www.w3.org/2000/svg">
<path d="M1080 540C1080 838.234 838.234 1080 540 1080C241.766 1080 0 838.234 0 540C0 241.766 241.766 0 540 0C838.234 0 1080 241.766 1080 540Z" fill="#FF6160"/>
<mask id="mask0_1156_26582" style="mask-type:alpha" maskUnits="userSpaceOnUse" x="0" y="0" width="1080" height="1080">
<circle cx="540" cy="540" r="540" fill="#A7B9FF"/>
</mask>
<g mask="url(#mask0_1156_26582)">
<path fill-rule="evenodd" clip-rule="evenodd" d="M1246.73 1006.14C1131.58 878.383 856.132 760.54 576.263 753.003C237.541 743.882 -90.8112 877.131 -183.373 1038.66C-352.41 1333.64 -307.628 2099.91 -307.628 2099.91H1357.02C1357.02 2099.91 1416.89 1194.92 1246.73 1006.14Z" fill="#FFB8C0"/>
<path fill-rule="evenodd" clip-rule="evenodd" d="M1246.73 1006.14C1131.58 878.383 856.132 760.54 576.263 753.003C237.541 743.882 -90.8112 877.131 -183.373 1038.66C-352.41 1333.64 -307.628 2099.91 -307.628 2099.91H1357.02C1357.02 2099.91 1416.89 1194.92 1246.73 1006.14Z" fill="#370285"/>
<path fill-rule="evenodd" clip-rule="evenodd" d="M594.017 752.536C594.017 752.536 666.877 848.002 654.223 1286.68C653.99 1294.76 653.772 1474.05 653.56 1482.09C645.404 1795.49 654.223 2099.91 654.223 2099.91H473.161V1289.85C473.161 950.893 471.283 959.665 419.615 759.051C464.229 752.39 547.554 748.423 594.017 752.536Z" fill="white"/>
<path fill-rule="evenodd" clip-rule="evenodd" d="M454.237 957.263L514.29 971.676L504.896 2099.91H430.907L454.237 957.263Z" fill="#000E5D"/>
<path d="M436.598 839.704C457.758 844.981 487.912 854.808 530.713 852.879C582.599 850.477 606.795 839.777 621.554 826.456" stroke="#370285" stroke-width="15.1771" stroke-miterlimit="1.5" stroke-linejoin="round"/>
<path fill-rule="evenodd" clip-rule="evenodd" d="M427.28 756.394L317.237 772.59L352.974 971.675L463.73 956.426C457.179 879.885 445.947 833.845 428.507 781.18C426.094 773.864 430.294 766.112 427.28 756.394Z" fill="#000E5D"/>
<path fill-rule="evenodd" clip-rule="evenodd" d="M592.724 751.044C620.636 818.74 633.749 877.083 644.773 959.665L754.812 977.171C745.288 889.057 720.804 843.089 692.674 761.162L592.724 751.044Z" fill="#000E5D"/>
<path fill-rule="evenodd" clip-rule="evenodd" d="M584.594 664.006L427.861 622.748L427.278 777.163C427.278 777.163 429.897 813.024 513.262 811.787C605.465 810.419 600.01 776.021 600.01 776.021L584.594 664.006Z" fill="#FFB8C0"/>
<path fill-rule="evenodd" clip-rule="evenodd" d="M584.566 664.009L507.268 645.623C514.012 690.138 549.946 755.845 600.376 776.776L584.566 664.009Z" fill="#FF9CA0"/>
<path fill-rule="evenodd" clip-rule="evenodd" d="M395.447 426.517C395.447 426.517 534.734 436.307 608.946 434.669C681.519 433.032 717.66 405.116 717.66 405.116C717.66 405.116 689.598 278.058 564.323 278.058C382.999 278.058 395.447 426.517 395.447 426.517Z" fill="#FFB8C0"/>
<path fill-rule="evenodd" clip-rule="evenodd" d="M431.295 653.684C431.295 653.684 397 639.559 392.533 584.726C386.947 516.127 383.337 485.001 364.484 451.301C345.933 418.139 349.111 338.838 382.716 297.472C431.067 237.955 488.49 250.366 488.49 250.366C488.49 250.366 539.205 226.142 574.56 223.635C709.39 214.07 793.918 360.867 717.197 398.563C647.156 432.976 453.884 420.894 453.884 420.894L431.295 653.684Z" fill="#382149"/>
<path fill-rule="evenodd" clip-rule="evenodd" d="M434.11 536.625L433.669 653.686C484.037 670.722 535.746 685.412 590.401 694.944C590.401 694.944 730.419 724.002 733.708 597.911C737.089 468.214 717.65 405.202 717.65 405.202C630.876 427.657 545.799 422.482 444.897 411.548C342.381 400.44 340.543 534.032 434.11 536.625Z" fill="#FFB8C0"/>
<path fill-rule="evenodd" clip-rule="evenodd" d="M454.736 479.708C463.289 362.263 501.287 278.36 591.403 222.534C555.444 202.305 523.815 204.221 494.99 220.572C423.509 281.817 391.443 357.638 383.473 467.002L454.736 479.708Z" fill="#E83230"/>
<path d="M419.402 551.551C465.958 551.551 503.699 513.81 503.699 467.254C503.699 420.697 465.958 382.956 419.402 382.956C372.845 382.956 335.103 420.697 335.103 467.254C335.103 513.81 372.845 551.551 419.402 551.551Z" fill="#E83230"/>
<path d="M392.583 535.862C430.5 535.862 461.237 505.125 461.237 467.208C461.237 429.292 430.5 398.554 392.583 398.554C354.666 398.554 323.928 429.292 323.928 467.208C323.928 505.125 354.666 535.862 392.583 535.862Z" fill="#C51816"/>
<path d="M392.569 502.628C412.126 502.628 427.98 486.774 427.98 467.217C427.98 447.66 412.126 431.805 392.569 431.805C373.011 431.805 357.156 447.66 357.156 467.217C357.156 486.774 373.011 502.628 392.569 502.628Z" fill="#E83230"/>
<path d="M587.272 519.401C594.016 519.401 599.486 511.816 599.486 502.463C599.486 493.109 594.016 485.524 587.272 485.524C580.528 485.524 575.058 493.109 575.058 502.463C575.058 511.816 580.528 519.401 587.272 519.401Z" fill="#310234"/>
<path fill-rule="evenodd" clip-rule="evenodd" d="M639.383 496.373L671.12 569.274L640.365 573.241L639.383 496.373Z" fill="#FF5F71"/>
<path fill-rule="evenodd" clip-rule="evenodd" d="M681.642 593.818C681.533 610.702 667.794 624.376 650.888 624.376C633.913 624.376 620.13 610.593 620.13 593.618H681.642V593.818Z" fill="white"/>
<path d="M684.556 493.301C669.634 488.09 664.963 496.031 664.963 496.031C664.963 496.031 673.626 479.811 687.32 478.354" stroke="#310234" stroke-width="7.57034" stroke-miterlimit="1.5" stroke-linecap="round" stroke-linejoin="round"/>
</g>
</svg>
